HIERARCHY
ROOT PELVIS
{
    OFFSET 0 0 0
    CHANNELS 6 Xposition Yposition Zposition Xrotation Yrotation Zrotation
    JOINT SPINE_NAVAL
    {
        OFFSET -2.0534851999999972 -15.5394837 -4.181665000000021
        CHANNELS 3 Xrotation Yrotation Zrotation
        JOINT SPINE_CHEST
        {
            OFFSET -0.1256637000000012 -12.880011000000001 -1.5139648999999735
            CHANNELS 3 Xrotation Yrotation Zrotation
            JOINT NECK
            {
                OFFSET 0.6955734000000007 -19.713171299999992 -0.8032470999999987
                CHANNELS 3 Xrotation Yrotation Zrotation
                JOINT HEAD
                {
                    OFFSET -1.3472442999999998 -6.821453900000006 -2.612817300000006
                    CHANNELS 3 Xrotation Yrotation Zrotation
                    JOINT NOSE
                    {
                        OFFSET -10.2120224 -6.3880370999999965 -8.271045000000004
                        CHANNELS 3 Xrotation Yrotation Zrotation
                    }
                    JOINT EYE_LEFT
                    {
                        OFFSET -5.676336600000002 -8.508123799999998 -9.185913100000016
                        CHANNELS 3 Xrotation Yrotation Zrotation
                    }
                    JOINT EAR_LEFT
                    {
                        OFFSET 5.389044199999998 -5.954736300000002 -7.205004899999994
                        CHANNELS 3 Xrotation Yrotation Zrotation
                    }
                    JOINT EYE_RIGHT
                    {
                        OFFSET -9.728736800000002 -8.933819600000003 -4.3443360000000215
                        CHANNELS 3 Xrotation Yrotation Zrotation
                    }
                    JOINT EAR_RIGHT
                    {
                        OFFSET -5.135905400000001 -7.024273700000004 6.481689400000005
                        CHANNELS 3 Xrotation Yrotation Zrotation
                    }
                }
            }
            JOINT CLAVICLE_LEFT
            {
                OFFSET 2.8376296999999995 -16.523620599999997 -0.8934326000000056
                CHANNELS 3 Xrotation Yrotation Zrotation
                JOINT SHOULDER_LEFT
                {
                    OFFSET 10.252911399999999 3.060675100000003 -7.381201199999987
                    CHANNELS 3 Xrotation Yrotation Zrotation
                    JOINT ELBOW_LEFT
                    {
                        OFFSET 3.705188000000004 24.848709099999997 -0.4947998000000098
                        CHANNELS 3 Xrotation Yrotation Zrotation
                        JOINT WRIST_LEFT
                        {
                            OFFSET -1.6777131000000054 20.755538899999998 -3.3462890000000245
                            CHANNELS 3 Xrotation Yrotation Zrotation
                            JOINT HAND_LEFT
                            {
                                OFFSET 2.300473100000005 8.163669200000001 2.175024400000029
                                CHANNELS 3 Xrotation Yrotation Zrotation
                                JOINT HANDTIP_LEFT
                                {
                                    OFFSET -0.051223800000002484 7.1441635 6.745263599999999
                                    CHANNELS 3 Xrotation Yrotation Zrotation
                                }
                            }
                            JOINT THUMB_LEFT
                            {
                                OFFSET -2.834121699999997 11.9597349 4.810522400000036
                                CHANNELS 3 Xrotation Yrotation Zrotation
                            }
                        }
                    }
                }
            }
            JOINT CLAVICLE_RIGHT
            {
                OFFSET -1.0794707999999986 -16.622052000000004 1.603588899999977
                CHANNELS 3 Xrotation Yrotation Zrotation
                JOINT SHOULDER_RIGHT
                {
                    OFFSET -10.558650200000002 3.7694825000000036 4.160668900000019
                    CHANNELS 3 Xrotation Yrotation Zrotation
                    JOINT ELBOW_RIGHT
                    {
                        OFFSET -3.171775099999999 24.1309143 7.949121100000002
                        CHANNELS 3 Xrotation Yrotation Zrotation
                        JOINT WRIST_RIGHT
                        {
                            OFFSET -3.3093597000000003 20.921231799999997 -2.7364501999999904
                            CHANNELS 3 Xrotation Yrotation Zrotation
                            JOINT HAND_RIGHT
                            {
                                OFFSET -0.3383876999999991 8.972045099999999 2.876147499999979
                                CHANNELS 3 Xrotation Yrotation Zrotation
                                JOINT HANDTIP_RIGHT
                                {
                                    OFFSET 7.4710163 5.7339547 -2.140478499999972
                                    CHANNELS 3 Xrotation Yrotation Zrotation
                                }
                            }
                            JOINT THUMB_RIGHT
                            {
                                OFFSET 3.8033332 12.8209585 -1.3018309999999929
                                CHANNELS 3 Xrotation Yrotation Zrotation
                            }
                        }
                    }
                }
            }
        }
    }
    JOINT PELVIS_LEFT
    {
        OFFSET 0.0 0.0 0.0
        CHANNELS 3 Xrotation Yrotation Zrotation
        JOINT HIP_LEFT
        {
            OFFSET 7.179837000000004 0.16621849999999938 -4.143481400000018
            CHANNELS 3 Xrotation Yrotation Zrotation
            JOINT KNEE_LEFT
            {
                OFFSET 1.8186462000000005 36.3250458 1.54128410000003
                CHANNELS 3 Xrotation Yrotation Zrotation
                JOINT ANKLE_LEFT
                {
                    OFFSET 5.139150999999998 31.740254200000003 13.285449299999982
                    CHANNELS 3 Xrotation Yrotation Zrotation
                    JOINT FOOT_LEFT
                    {
                        OFFSET -1.627920499999999 12.280194099999994 -11.693652399999973
                        CHANNELS 3 Xrotation Yrotation Zrotation
                    }
                }
            }
        }
    }
    JOINT PELVIS_RIGHT
    {
        OFFSET 0.0 0.0 0.0
        CHANNELS 3 Xrotation Yrotation Zrotation
        JOINT HIP_RIGHT
        {
            OFFSET -6.474380499999998 -0.14957740000000114 3.736352500000021
            CHANNELS 3 Xrotation Yrotation Zrotation
            JOINT KNEE_RIGHT
            {
                OFFSET 2.1862212999999997 35.5006073 7.567529299999978
                CHANNELS 3 Xrotation Yrotation Zrotation
                JOINT ANKLE_RIGHT
                {
                    OFFSET 6.129772899999997 33.16903229999999 9.909472700000014
                    CHANNELS 3 Xrotation Yrotation Zrotation
                    JOINT FOOT_RIGHT
                    {
                        OFFSET -9.378500299999999 10.563830600000006 -6.789648400000033
                        CHANNELS 3 Xrotation Yrotation Zrotation
                    }
                }
            }
        }
    }
}
MOTION
Frames: 4
Frame Time: 0.01
0 0 0 19.815641205117288 3.858142241474348 -14.318192352863155 5.688111211581029 -0.11108904473508577 -2.841493021334876 2.8037858840241436 5.309948068260821 4.164444453997884 2.804050843993348 5.3100212666802555 4.164346494217788 7.348085923761572 -1.9836525488101853 -0.594453731470848 -0.6281556349938074 1.844485328902787 -0.8444740538588971 2.9120355142081253 5.58795423521638 9.133591046214775 -7.366726757726788 5.517194119254744 -4.995850240549914 -12.861152491026415 -1.1418184278864645 11.447075332018052 -17.323530894489735 -11.103684786225836 36.96313583850232 -65.58111137881987 -44.62783912687458 3.695537021369194 0 0 0 0 0 0 0.7032534946207818 -2.407197503961714 2.772365732759771 -15.85658598909169 2.273643592625415 -1.0017941805343695 -13.60122227721064 1.8346408452595577 1.9094372454157407 -40.07508496241271 8.551399283145573 11.085232400555542 39.94007437195491 -15.702681465097365 40.77817000680464 0 0 0 0 0 0 -45.02539641072241 10.094236111812593 19.674316628917452 20.120366133344998 5.230270473787923 -17.687856651838935 -11.746349207637294 5.248250486270024 6.248031554649371 0 0 0 -48.550753055572564 6.838341002034626 30.84692658667269 27.69761684349924 8.590015329569606 -23.93663024594499 -13.76917127075947 -3.1039798246946937 11.286949751307214 0 0 0 -7.874761743018838 -6.995674401297216 7.1090719634506465 0 0 0 0 0 0 0 0 0 0 0 0 0 0 0 
0 0 0 19.493809258261166 3.715258954494689 -14.006986741903951 5.739444568985558 -0.08788815946926072 -2.8694979551977973 2.764295863565928 5.34462715641501 4.1281659299405655 2.7645586958460897 5.344697498066081 4.128065988998669 7.2050802834889485 -1.925473413510372 -0.5335044732347457 -0.6461166127689865 1.8336174942856165 -0.8550342154362698 2.585432985057514 5.959909390274333 8.588781175459255 -7.473568561382298 5.083146520296138 -4.310582942082056 -12.233775822531834 -1.1297013815545622 11.076197544342552 -15.439096951461073 -11.575352657134921 35.624347065079284 -65.91964298640207 -43.278092501594784 3.1739327728030515 0 0 0 0 0 0 0.7509534917448059 -2.4673087064099 2.8970721052042405 -16.31581022806605 2.16408453117147 -1.0374707945244779 -12.357561309389611 1.6091430257388903 1.3301614219722713 -39.67191279756411 8.441087223865587 10.85482719955521 39.191628325699476 -16.511820282772288 40.90900128504104 0 0 0 0 0 0 -44.329483456383656 9.724765060938504 19.121969615089156 19.796673421587283 4.98307088324175 -17.171964258877637 -12.253666842822732 5.083355268239151 6.186098133896148 0 0 0 -47.78157440665411 6.5332283043666575 30.229930124309035 27.287414287845248 8.390251128537983 -23.59597797588655 -14.309531032554188 -3.4784831114727233 11.356024600813345 0 0 0 -8.360141137817957 -6.914760620107729 7.773947184297771 0 0 0 0 0 0 0 0 0 0 0 0 0 0 0 
0 0 0 19.17305859270114 3.574989930234042 -13.696957349864187 5.790362999064262 -0.06462197974612857 -2.8973749256783794 2.724727490685312 5.378164457365342 4.091618328311802 2.7249881239393035 5.37823202903923 4.091516283078506 7.062327357298133 -1.8683119795712622 -0.4741752992738259 -0.663647328638129 1.8225983073432015 -0.8655722644391454 2.2546127577781596 6.322923294032809 8.04908873981103 -7.569763970270953 4.670704713848654 -3.623524517605016 -11.62429260326499 -1.1136882790362934 10.691340444303941 -13.551978756286411 -12.004382585569903 34.27186031850037 -66.26450253001988 -41.902028953797455 2.7445322768329246 0 0 0 0 0 0 0.7978424491023707 -2.52808278900069 3.022105693866203 -16.77142102099793 2.0493318249531653 -1.074394772736327 -11.117533240939096 1.3984380918022032 0.7564855040787968 -39.277542513454506 8.327224815296727 10.614313092686084 38.41975351123131 -17.30134666036714 41.05341874202778 0 0 0 0 0 0 -43.63457446291623 9.363571260395016 18.569607776100575 19.47356900143922 4.739298373910037 -16.657339877204276 -12.757133360978324 4.920302510617479 6.129262329969731 0 0 0 -47.014411004719726 6.235908796077834 29.613308275672985 26.88354612967611 8.190282781450957 -23.25133372410877 -14.8463453683771 -3.8526910987100225 11.428161279089744 0 0 0 -8.84163992620121 -6.824579813837759 8.434911742831202 0 0 0 0 0 0 0 0 0 0 0 0 0 0 0 
0 0 0 18.853437880855196 3.4373239030731875 -13.388148386019393 5.840852573401633 -0.04129994781371117 -2.9251135468149303 2.685101624846588 5.410564150737107 4.0548246854929655 2.6853599881096835 5.410629033889676 4.054720413494574 6.919892430524288 -1.8121785888799673 -0.41645984602018704 -0.6807548233015973 1.8114453630771261 -0.8760873217234746 1.9198896500588833 6.677094001535841 7.514623732712526 -7.655237161134864 4.279806943678255 -2.935751469429387 -11.033073609619796 -1.0940137702861328 10.293732740227409 -11.666554256902192 -12.390439397355854 32.9100556548318 -66.61008040128331 -40.50836185603618 2.40519750084506 0 0 0 0 0 0 0.8439415596629658 -2.589474709724885 3.1474479527742076 -17.223008990544255 1.929509818152464 -1.1125305916794608 -9.881910862086196 1.2021337477511163 0.18886718242127504 -38.892232916198644 8.210284615471034 10.36316337431417 37.625086506770685 -18.07022955614343 41.211056934285445 0 0 0 0 0 0 -42.94081602991549 9.010644766514925 18.01737130956606 19.15103094079945 4.499006622143098 -16.144104570290903 -13.256645788993042 4.759262115099635 6.07736994468705 0 0 0 -46.24942805795258 5.946410842316133 28.99722075337587 26.485886294961322 7.990263590955503 -22.902952315660162 -15.379570865937076 -4.226355769607741 11.503450129256155 0 0 0 -9.318315604685726 -6.725483404212766 9.090757027248127 0 0 0 0 0 0 0 0 0 0 0 0 0 0 0 
